<?xml version="1.0" encoding="utf-8" standalone="no"?>
<!DOCTYPE svg PUBLIC "-//W3C//DTD SVG 1.1//EN"
  "http://www.w3.org/Graphics/SVG/1.1/DTD/svg11.dtd">
<!-- Created with matplotlib (https://matplotlib.org/) -->
<svg height="345.6pt" version="1.1" viewBox="0 0 460.8 345.6" width="460.8pt" xmlns="http://www.w3.org/2000/svg" xmlns:xlink="http://www.w3.org/1999/xlink">
 <metadata>
  <rdf:RDF xmlns:cc="http://creativecommons.org/ns#" xmlns:dc="http://purl.org/dc/elements/1.1/" xmlns:rdf="http://www.w3.org/1999/02/22-rdf-syntax-ns#">
   <cc:Work>
    <dc:type rdf:resource="http://purl.org/dc/dcmitype/StillImage"/>
    <dc:date>2020-10-29T23:13:22.789868</dc:date>
    <dc:format>image/svg+xml</dc:format>
    <dc:creator>
     <cc:Agent>
      <dc:title>Matplotlib v3.3.0, https://matplotlib.org/</dc:title>
     </cc:Agent>
    </dc:creator>
   </cc:Work>
  </rdf:RDF>
 </metadata>
 <defs>
  <style type="text/css">*{stroke-linecap:butt;stroke-linejoin:round;}</style>
 </defs>
 <g id="figure_1">
  <g id="patch_1">
   <path d="M 0 345.6 
L 460.8 345.6 
L 460.8 0 
L 0 0 
z
" style="fill:#ffffff;"/>
  </g>
  <g id="axes_1">
   <g id="patch_2">
    <path d="M 57.6 307.584 
L 414.72 307.584 
L 414.72 41.472 
L 57.6 41.472 
z
" style="fill:#ffffff;"/>
   </g>
   <g id="matplotlib.axis_1">
    <g id="xtick_1">
     <g id="line2d_1">
      <defs>
       <path d="M 0 0 
L 0 3.5 
" id="ma5265e5143" style="stroke:#000000;stroke-width:0.8;"/>
      </defs>
      <g>
       <use style="stroke:#000000;stroke-width:0.8;" x="73.832727" xlink:href="#ma5265e5143" y="307.584"/>
      </g>
     </g>
     <g id="text_1">
      <!-- $\mathdefault{10^{1}}$ -->
      <g transform="translate(65.032727 322.182437)scale(0.1 -0.1)">
       <defs>
        <path d="M 12.40625 8.296875 
L 28.515625 8.296875 
L 28.515625 63.921875 
L 10.984375 60.40625 
L 10.984375 69.390625 
L 28.421875 72.90625 
L 38.28125 72.90625 
L 38.28125 8.296875 
L 54.390625 8.296875 
L 54.390625 0 
L 12.40625 0 
z
" id="DejaVuSans-49"/>
        <path d="M 31.78125 66.40625 
Q 24.171875 66.40625 20.328125 58.90625 
Q 16.5 51.421875 16.5 36.375 
Q 16.5 21.390625 20.328125 13.890625 
Q 24.171875 6.390625 31.78125 6.390625 
Q 39.453125 6.390625 43.28125 13.890625 
Q 47.125 21.390625 47.125 36.375 
Q 47.125 51.421875 43.28125 58.90625 
Q 39.453125 66.40625 31.78125 66.40625 
z
M 31.78125 74.21875 
Q 44.046875 74.21875 50.515625 64.515625 
Q 56.984375 54.828125 56.984375 36.375 
Q 56.984375 17.96875 50.515625 8.265625 
Q 44.046875 -1.421875 31.78125 -1.421875 
Q 19.53125 -1.421875 13.0625 8.265625 
Q 6.59375 17.96875 6.59375 36.375 
Q 6.59375 54.828125 13.0625 64.515625 
Q 19.53125 74.21875 31.78125 74.21875 
z
" id="DejaVuSans-48"/>
       </defs>
       <use transform="translate(0 0.684375)" xlink:href="#DejaVuSans-49"/>
       <use transform="translate(63.623047 0.684375)" xlink:href="#DejaVuSans-48"/>
       <use transform="translate(128.203125 38.965625)scale(0.7)" xlink:href="#DejaVuSans-49"/>
      </g>
     </g>
    </g>
    <g id="xtick_2">
     <g id="line2d_2">
      <g>
       <use style="stroke:#000000;stroke-width:0.8;" x="196.124493" xlink:href="#ma5265e5143" y="307.584"/>
      </g>
     </g>
     <g id="text_2">
      <!-- $\mathdefault{10^{2}}$ -->
      <g transform="translate(187.324493 322.182437)scale(0.1 -0.1)">
       <defs>
        <path d="M 19.1875 8.296875 
L 53.609375 8.296875 
L 53.609375 0 
L 7.328125 0 
L 7.328125 8.296875 
Q 12.9375 14.109375 22.625 23.890625 
Q 32.328125 33.6875 34.8125 36.53125 
Q 39.546875 41.84375 41.421875 45.53125 
Q 43.3125 49.21875 43.3125 52.78125 
Q 43.3125 58.59375 39.234375 62.25 
Q 35.15625 65.921875 28.609375 65.921875 
Q 23.96875 65.921875 18.8125 64.3125 
Q 13.671875 62.703125 7.8125 59.421875 
L 7.8125 69.390625 
Q 13.765625 71.78125 18.9375 73 
Q 24.125 74.21875 28.421875 74.21875 
Q 39.75 74.21875 46.484375 68.546875 
Q 53.21875 62.890625 53.21875 53.421875 
Q 53.21875 48.921875 51.53125 44.890625 
Q 49.859375 40.875 45.40625 35.40625 
Q 44.1875 33.984375 37.640625 27.21875 
Q 31.109375 20.453125 19.1875 8.296875 
z
" id="DejaVuSans-50"/>
       </defs>
       <use transform="translate(0 0.765625)" xlink:href="#DejaVuSans-49"/>
       <use transform="translate(63.623047 0.765625)" xlink:href="#DejaVuSans-48"/>
       <use transform="translate(128.203125 39.046875)scale(0.7)" xlink:href="#DejaVuSans-50"/>
      </g>
     </g>
    </g>
    <g id="xtick_3">
     <g id="line2d_3">
      <g>
       <use style="stroke:#000000;stroke-width:0.8;" x="318.416258" xlink:href="#ma5265e5143" y="307.584"/>
      </g>
     </g>
     <g id="text_3">
      <!-- $\mathdefault{10^{3}}$ -->
      <g transform="translate(309.616258 322.182437)scale(0.1 -0.1)">
       <defs>
        <path d="M 40.578125 39.3125 
Q 47.65625 37.796875 51.625 33 
Q 55.609375 28.21875 55.609375 21.1875 
Q 55.609375 10.40625 48.1875 4.484375 
Q 40.765625 -1.421875 27.09375 -1.421875 
Q 22.515625 -1.421875 17.65625 -0.515625 
Q 12.796875 0.390625 7.625 2.203125 
L 7.625 11.71875 
Q 11.71875 9.328125 16.59375 8.109375 
Q 21.484375 6.890625 26.8125 6.890625 
Q 36.078125 6.890625 40.9375 10.546875 
Q 45.796875 14.203125 45.796875 21.1875 
Q 45.796875 27.640625 41.28125 31.265625 
Q 36.765625 34.90625 28.71875 34.90625 
L 20.21875 34.90625 
L 20.21875 43.015625 
L 29.109375 43.015625 
Q 36.375 43.015625 40.234375 45.921875 
Q 44.09375 48.828125 44.09375 54.296875 
Q 44.09375 59.90625 40.109375 62.90625 
Q 36.140625 65.921875 28.71875 65.921875 
Q 24.65625 65.921875 20.015625 65.03125 
Q 15.375 64.15625 9.8125 62.3125 
L 9.8125 71.09375 
Q 15.4375 72.65625 20.34375 73.4375 
Q 25.25 74.21875 29.59375 74.21875 
Q 40.828125 74.21875 47.359375 69.109375 
Q 53.90625 64.015625 53.90625 55.328125 
Q 53.90625 49.265625 50.4375 45.09375 
Q 46.96875 40.921875 40.578125 39.3125 
z
" id="DejaVuSans-51"/>
       </defs>
       <use transform="translate(0 0.765625)" xlink:href="#DejaVuSans-49"/>
       <use transform="translate(63.623047 0.765625)" xlink:href="#DejaVuSans-48"/>
       <use transform="translate(128.203125 39.046875)scale(0.7)" xlink:href="#DejaVuSans-51"/>
      </g>
     </g>
    </g>
    <g id="xtick_4">
     <g id="line2d_4">
      <defs>
       <path d="M 0 0 
L 0 2 
" id="m424ed20d19" style="stroke:#000000;stroke-width:0.6;"/>
      </defs>
      <g>
       <use style="stroke:#000000;stroke-width:0.6;" x="61.981431" xlink:href="#m424ed20d19" y="307.584"/>
      </g>
     </g>
    </g>
    <g id="xtick_5">
     <g id="line2d_5">
      <g>
       <use style="stroke:#000000;stroke-width:0.6;" x="68.236963" xlink:href="#m424ed20d19" y="307.584"/>
      </g>
     </g>
    </g>
    <g id="xtick_6">
     <g id="line2d_6">
      <g>
       <use style="stroke:#000000;stroke-width:0.6;" x="110.646217" xlink:href="#m424ed20d19" y="307.584"/>
      </g>
     </g>
    </g>
    <g id="xtick_7">
     <g id="line2d_7">
      <g>
       <use style="stroke:#000000;stroke-width:0.6;" x="132.180728" xlink:href="#m424ed20d19" y="307.584"/>
      </g>
     </g>
    </g>
    <g id="xtick_8">
     <g id="line2d_8">
      <g>
       <use style="stroke:#000000;stroke-width:0.6;" x="147.459707" xlink:href="#m424ed20d19" y="307.584"/>
      </g>
     </g>
    </g>
    <g id="xtick_9">
     <g id="line2d_9">
      <g>
       <use style="stroke:#000000;stroke-width:0.6;" x="159.311003" xlink:href="#m424ed20d19" y="307.584"/>
      </g>
     </g>
    </g>
    <g id="xtick_10">
     <g id="line2d_10">
      <g>
       <use style="stroke:#000000;stroke-width:0.6;" x="168.994218" xlink:href="#m424ed20d19" y="307.584"/>
      </g>
     </g>
    </g>
    <g id="xtick_11">
     <g id="line2d_11">
      <g>
       <use style="stroke:#000000;stroke-width:0.6;" x="177.181259" xlink:href="#m424ed20d19" y="307.584"/>
      </g>
     </g>
    </g>
    <g id="xtick_12">
     <g id="line2d_12">
      <g>
       <use style="stroke:#000000;stroke-width:0.6;" x="184.273196" xlink:href="#m424ed20d19" y="307.584"/>
      </g>
     </g>
    </g>
    <g id="xtick_13">
     <g id="line2d_13">
      <g>
       <use style="stroke:#000000;stroke-width:0.6;" x="190.528728" xlink:href="#m424ed20d19" y="307.584"/>
      </g>
     </g>
    </g>
    <g id="xtick_14">
     <g id="line2d_14">
      <g>
       <use style="stroke:#000000;stroke-width:0.6;" x="232.937982" xlink:href="#m424ed20d19" y="307.584"/>
      </g>
     </g>
    </g>
    <g id="xtick_15">
     <g id="line2d_15">
      <g>
       <use style="stroke:#000000;stroke-width:0.6;" x="254.472493" xlink:href="#m424ed20d19" y="307.584"/>
      </g>
     </g>
    </g>
    <g id="xtick_16">
     <g id="line2d_16">
      <g>
       <use style="stroke:#000000;stroke-width:0.6;" x="269.751472" xlink:href="#m424ed20d19" y="307.584"/>
      </g>
     </g>
    </g>
    <g id="xtick_17">
     <g id="line2d_17">
      <g>
       <use style="stroke:#000000;stroke-width:0.6;" x="281.602769" xlink:href="#m424ed20d19" y="307.584"/>
      </g>
     </g>
    </g>
    <g id="xtick_18">
     <g id="line2d_18">
      <g>
       <use style="stroke:#000000;stroke-width:0.6;" x="291.285983" xlink:href="#m424ed20d19" y="307.584"/>
      </g>
     </g>
    </g>
    <g id="xtick_19">
     <g id="line2d_19">
      <g>
       <use style="stroke:#000000;stroke-width:0.6;" x="299.473024" xlink:href="#m424ed20d19" y="307.584"/>
      </g>
     </g>
    </g>
    <g id="xtick_20">
     <g id="line2d_20">
      <g>
       <use style="stroke:#000000;stroke-width:0.6;" x="306.564962" xlink:href="#m424ed20d19" y="307.584"/>
      </g>
     </g>
    </g>
    <g id="xtick_21">
     <g id="line2d_21">
      <g>
       <use style="stroke:#000000;stroke-width:0.6;" x="312.820494" xlink:href="#m424ed20d19" y="307.584"/>
      </g>
     </g>
    </g>
    <g id="xtick_22">
     <g id="line2d_22">
      <g>
       <use style="stroke:#000000;stroke-width:0.6;" x="355.229748" xlink:href="#m424ed20d19" y="307.584"/>
      </g>
     </g>
    </g>
    <g id="xtick_23">
     <g id="line2d_23">
      <g>
       <use style="stroke:#000000;stroke-width:0.6;" x="376.764259" xlink:href="#m424ed20d19" y="307.584"/>
      </g>
     </g>
    </g>
    <g id="xtick_24">
     <g id="line2d_24">
      <g>
       <use style="stroke:#000000;stroke-width:0.6;" x="392.043238" xlink:href="#m424ed20d19" y="307.584"/>
      </g>
     </g>
    </g>
    <g id="xtick_25">
     <g id="line2d_25">
      <g>
       <use style="stroke:#000000;stroke-width:0.6;" x="403.894534" xlink:href="#m424ed20d19" y="307.584"/>
      </g>
     </g>
    </g>
    <g id="xtick_26">
     <g id="line2d_26">
      <g>
       <use style="stroke:#000000;stroke-width:0.6;" x="413.577748" xlink:href="#m424ed20d19" y="307.584"/>
      </g>
     </g>
    </g>
    <g id="text_4">
     <!-- Problem size (N) -->
     <g transform="translate(195.205312 335.860562)scale(0.1 -0.1)">
      <defs>
       <path d="M 19.671875 64.796875 
L 19.671875 37.40625 
L 32.078125 37.40625 
Q 38.96875 37.40625 42.71875 40.96875 
Q 46.484375 44.53125 46.484375 51.125 
Q 46.484375 57.671875 42.71875 61.234375 
Q 38.96875 64.796875 32.078125 64.796875 
z
M 9.8125 72.90625 
L 32.078125 72.90625 
Q 44.34375 72.90625 50.609375 67.359375 
Q 56.890625 61.8125 56.890625 51.125 
Q 56.890625 40.328125 50.609375 34.8125 
Q 44.34375 29.296875 32.078125 29.296875 
L 19.671875 29.296875 
L 19.671875 0 
L 9.8125 0 
z
" id="DejaVuSans-80"/>
       <path d="M 41.109375 46.296875 
Q 39.59375 47.171875 37.8125 47.578125 
Q 36.03125 48 33.890625 48 
Q 26.265625 48 22.1875 43.046875 
Q 18.109375 38.09375 18.109375 28.8125 
L 18.109375 0 
L 9.078125 0 
L 9.078125 54.6875 
L 18.109375 54.6875 
L 18.109375 46.1875 
Q 20.953125 51.171875 25.484375 53.578125 
Q 30.03125 56 36.53125 56 
Q 37.453125 56 38.578125 55.875 
Q 39.703125 55.765625 41.0625 55.515625 
z
" id="DejaVuSans-114"/>
       <path d="M 30.609375 48.390625 
Q 23.390625 48.390625 19.1875 42.75 
Q 14.984375 37.109375 14.984375 27.296875 
Q 14.984375 17.484375 19.15625 11.84375 
Q 23.34375 6.203125 30.609375 6.203125 
Q 37.796875 6.203125 41.984375 11.859375 
Q 46.1875 17.53125 46.1875 27.296875 
Q 46.1875 37.015625 41.984375 42.703125 
Q 37.796875 48.390625 30.609375 48.390625 
z
M 30.609375 56 
Q 42.328125 56 49.015625 48.375 
Q 55.71875 40.765625 55.71875 27.296875 
Q 55.71875 13.875 49.015625 6.21875 
Q 42.328125 -1.421875 30.609375 -1.421875 
Q 18.84375 -1.421875 12.171875 6.21875 
Q 5.515625 13.875 5.515625 27.296875 
Q 5.515625 40.765625 12.171875 48.375 
Q 18.84375 56 30.609375 56 
z
" id="DejaVuSans-111"/>
       <path d="M 48.6875 27.296875 
Q 48.6875 37.203125 44.609375 42.84375 
Q 40.53125 48.484375 33.40625 48.484375 
Q 26.265625 48.484375 22.1875 42.84375 
Q 18.109375 37.203125 18.109375 27.296875 
Q 18.109375 17.390625 22.1875 11.75 
Q 26.265625 6.109375 33.40625 6.109375 
Q 40.53125 6.109375 44.609375 11.75 
Q 48.6875 17.390625 48.6875 27.296875 
z
M 18.109375 46.390625 
Q 20.953125 51.265625 25.265625 53.625 
Q 29.59375 56 35.59375 56 
Q 45.5625 56 51.78125 48.09375 
Q 58.015625 40.1875 58.015625 27.296875 
Q 58.015625 14.40625 51.78125 6.484375 
Q 45.5625 -1.421875 35.59375 -1.421875 
Q 29.59375 -1.421875 25.265625 0.953125 
Q 20.953125 3.328125 18.109375 8.203125 
L 18.109375 0 
L 9.078125 0 
L 9.078125 75.984375 
L 18.109375 75.984375 
z
" id="DejaVuSans-98"/>
       <path d="M 9.421875 75.984375 
L 18.40625 75.984375 
L 18.40625 0 
L 9.421875 0 
z
" id="DejaVuSans-108"/>
       <path d="M 56.203125 29.59375 
L 56.203125 25.203125 
L 14.890625 25.203125 
Q 15.484375 15.921875 20.484375 11.0625 
Q 25.484375 6.203125 34.421875 6.203125 
Q 39.59375 6.203125 44.453125 7.46875 
Q 49.3125 8.734375 54.109375 11.28125 
L 54.109375 2.78125 
Q 49.265625 0.734375 44.1875 -0.34375 
Q 39.109375 -1.421875 33.890625 -1.421875 
Q 20.796875 -1.421875 13.15625 6.1875 
Q 5.515625 13.8125 5.515625 26.8125 
Q 5.515625 40.234375 12.765625 48.109375 
Q 20.015625 56 32.328125 56 
Q 43.359375 56 49.78125 48.890625 
Q 56.203125 41.796875 56.203125 29.59375 
z
M 47.21875 32.234375 
Q 47.125 39.59375 43.09375 43.984375 
Q 39.0625 48.390625 32.421875 48.390625 
Q 24.90625 48.390625 20.390625 44.140625 
Q 15.875 39.890625 15.1875 32.171875 
z
" id="DejaVuSans-101"/>
       <path d="M 52 44.1875 
Q 55.375 50.25 60.0625 53.125 
Q 64.75 56 71.09375 56 
Q 79.640625 56 84.28125 50.015625 
Q 88.921875 44.046875 88.921875 33.015625 
L 88.921875 0 
L 79.890625 0 
L 79.890625 32.71875 
Q 79.890625 40.578125 77.09375 44.375 
Q 74.3125 48.1875 68.609375 48.1875 
Q 61.625 48.1875 57.5625 43.546875 
Q 53.515625 38.921875 53.515625 30.90625 
L 53.515625 0 
L 44.484375 0 
L 44.484375 32.71875 
Q 44.484375 40.625 41.703125 44.40625 
Q 38.921875 48.1875 33.109375 48.1875 
Q 26.21875 48.1875 22.15625 43.53125 
Q 18.109375 38.875 18.109375 30.90625 
L 18.109375 0 
L 9.078125 0 
L 9.078125 54.6875 
L 18.109375 54.6875 
L 18.109375 46.1875 
Q 21.1875 51.21875 25.484375 53.609375 
Q 29.78125 56 35.6875 56 
Q 41.65625 56 45.828125 52.96875 
Q 50 49.953125 52 44.1875 
z
" id="DejaVuSans-109"/>
       <path id="DejaVuSans-32"/>
       <path d="M 44.28125 53.078125 
L 44.28125 44.578125 
Q 40.484375 46.53125 36.375 47.5 
Q 32.28125 48.484375 27.875 48.484375 
Q 21.1875 48.484375 17.84375 46.4375 
Q 14.5 44.390625 14.5 40.28125 
Q 14.5 37.15625 16.890625 35.375 
Q 19.28125 33.59375 26.515625 31.984375 
L 29.59375 31.296875 
Q 39.15625 29.25 43.1875 25.515625 
Q 47.21875 21.78125 47.21875 15.09375 
Q 47.21875 7.46875 41.1875 3.015625 
Q 35.15625 -1.421875 24.609375 -1.421875 
Q 20.21875 -1.421875 15.453125 -0.5625 
Q 10.6875 0.296875 5.421875 2 
L 5.421875 11.28125 
Q 10.40625 8.6875 15.234375 7.390625 
Q 20.0625 6.109375 24.8125 6.109375 
Q 31.15625 6.109375 34.5625 8.28125 
Q 37.984375 10.453125 37.984375 14.40625 
Q 37.984375 18.0625 35.515625 20.015625 
Q 33.0625 21.96875 24.703125 23.78125 
L 21.578125 24.515625 
Q 13.234375 26.265625 9.515625 29.90625 
Q 5.8125 33.546875 5.8125 39.890625 
Q 5.8125 47.609375 11.28125 51.796875 
Q 16.75 56 26.8125 56 
Q 31.78125 56 36.171875 55.265625 
Q 40.578125 54.546875 44.28125 53.078125 
z
" id="DejaVuSans-115"/>
       <path d="M 9.421875 54.6875 
L 18.40625 54.6875 
L 18.40625 0 
L 9.421875 0 
z
M 9.421875 75.984375 
L 18.40625 75.984375 
L 18.40625 64.59375 
L 9.421875 64.59375 
z
" id="DejaVuSans-105"/>
       <path d="M 5.515625 54.6875 
L 48.1875 54.6875 
L 48.1875 46.484375 
L 14.40625 7.171875 
L 48.1875 7.171875 
L 48.1875 0 
L 4.296875 0 
L 4.296875 8.203125 
L 38.09375 47.515625 
L 5.515625 47.515625 
z
" id="DejaVuSans-122"/>
       <path d="M 31 75.875 
Q 24.46875 64.65625 21.28125 53.65625 
Q 18.109375 42.671875 18.109375 31.390625 
Q 18.109375 20.125 21.3125 9.0625 
Q 24.515625 -2 31 -13.1875 
L 23.1875 -13.1875 
Q 15.875 -1.703125 12.234375 9.375 
Q 8.59375 20.453125 8.59375 31.390625 
Q 8.59375 42.28125 12.203125 53.3125 
Q 15.828125 64.359375 23.1875 75.875 
z
" id="DejaVuSans-40"/>
       <path d="M 9.8125 72.90625 
L 23.09375 72.90625 
L 55.421875 11.921875 
L 55.421875 72.90625 
L 64.984375 72.90625 
L 64.984375 0 
L 51.703125 0 
L 19.390625 60.984375 
L 19.390625 0 
L 9.8125 0 
z
" id="DejaVuSans-78"/>
       <path d="M 8.015625 75.875 
L 15.828125 75.875 
Q 23.140625 64.359375 26.78125 53.3125 
Q 30.421875 42.28125 30.421875 31.390625 
Q 30.421875 20.453125 26.78125 9.375 
Q 23.140625 -1.703125 15.828125 -13.1875 
L 8.015625 -13.1875 
Q 14.5 -2 17.703125 9.0625 
Q 20.90625 20.125 20.90625 31.390625 
Q 20.90625 42.671875 17.703125 53.65625 
Q 14.5 64.65625 8.015625 75.875 
z
" id="DejaVuSans-41"/>
      </defs>
      <use xlink:href="#DejaVuSans-80"/>
      <use x="58.552734" xlink:href="#DejaVuSans-114"/>
      <use x="97.416016" xlink:href="#DejaVuSans-111"/>
      <use x="158.597656" xlink:href="#DejaVuSans-98"/>
      <use x="222.074219" xlink:href="#DejaVuSans-108"/>
      <use x="249.857422" xlink:href="#DejaVuSans-101"/>
      <use x="311.380859" xlink:href="#DejaVuSans-109"/>
      <use x="408.792969" xlink:href="#DejaVuSans-32"/>
      <use x="440.580078" xlink:href="#DejaVuSans-115"/>
      <use x="492.679688" xlink:href="#DejaVuSans-105"/>
      <use x="520.462891" xlink:href="#DejaVuSans-122"/>
      <use x="572.953125" xlink:href="#DejaVuSans-101"/>
      <use x="634.476562" xlink:href="#DejaVuSans-32"/>
      <use x="666.263672" xlink:href="#DejaVuSans-40"/>
      <use x="705.277344" xlink:href="#DejaVuSans-78"/>
      <use x="780.082031" xlink:href="#DejaVuSans-41"/>
     </g>
    </g>
   </g>
   <g id="matplotlib.axis_2">
    <g id="ytick_1">
     <g id="line2d_27">
      <defs>
       <path d="M 0 0 
L -3.5 0 
" id="me905ed63c9" style="stroke:#000000;stroke-width:0.8;"/>
      </defs>
      <g>
       <use style="stroke:#000000;stroke-width:0.8;" x="57.6" xlink:href="#me905ed63c9" y="295.488"/>
      </g>
     </g>
     <g id="text_5">
      <!-- 0 -->
      <g transform="translate(44.2375 299.287219)scale(0.1 -0.1)">
       <use xlink:href="#DejaVuSans-48"/>
      </g>
     </g>
    </g>
    <g id="ytick_2">
     <g id="line2d_28">
      <g>
       <use style="stroke:#000000;stroke-width:0.8;" x="57.6" xlink:href="#me905ed63c9" y="239.966532"/>
      </g>
     </g>
     <g id="text_6">
      <!-- 20 -->
      <g transform="translate(37.875 243.765751)scale(0.1 -0.1)">
       <use xlink:href="#DejaVuSans-50"/>
       <use x="63.623047" xlink:href="#DejaVuSans-48"/>
      </g>
     </g>
    </g>
    <g id="ytick_3">
     <g id="line2d_29">
      <g>
       <use style="stroke:#000000;stroke-width:0.8;" x="57.6" xlink:href="#me905ed63c9" y="184.445064"/>
      </g>
     </g>
     <g id="text_7">
      <!-- 40 -->
      <g transform="translate(37.875 188.244283)scale(0.1 -0.1)">
       <defs>
        <path d="M 37.796875 64.3125 
L 12.890625 25.390625 
L 37.796875 25.390625 
z
M 35.203125 72.90625 
L 47.609375 72.90625 
L 47.609375 25.390625 
L 58.015625 25.390625 
L 58.015625 17.1875 
L 47.609375 17.1875 
L 47.609375 0 
L 37.796875 0 
L 37.796875 17.1875 
L 4.890625 17.1875 
L 4.890625 26.703125 
z
" id="DejaVuSans-52"/>
       </defs>
       <use xlink:href="#DejaVuSans-52"/>
       <use x="63.623047" xlink:href="#DejaVuSans-48"/>
      </g>
     </g>
    </g>
    <g id="ytick_4">
     <g id="line2d_30">
      <g>
       <use style="stroke:#000000;stroke-width:0.8;" x="57.6" xlink:href="#me905ed63c9" y="128.923596"/>
      </g>
     </g>
     <g id="text_8">
      <!-- 60 -->
      <g transform="translate(37.875 132.722815)scale(0.1 -0.1)">
       <defs>
        <path d="M 33.015625 40.375 
Q 26.375 40.375 22.484375 35.828125 
Q 18.609375 31.296875 18.609375 23.390625 
Q 18.609375 15.53125 22.484375 10.953125 
Q 26.375 6.390625 33.015625 6.390625 
Q 39.65625 6.390625 43.53125 10.953125 
Q 47.40625 15.53125 47.40625 23.390625 
Q 47.40625 31.296875 43.53125 35.828125 
Q 39.65625 40.375 33.015625 40.375 
z
M 52.59375 71.296875 
L 52.59375 62.3125 
Q 48.875 64.0625 45.09375 64.984375 
Q 41.3125 65.921875 37.59375 65.921875 
Q 27.828125 65.921875 22.671875 59.328125 
Q 17.53125 52.734375 16.796875 39.40625 
Q 19.671875 43.65625 24.015625 45.921875 
Q 28.375 48.1875 33.59375 48.1875 
Q 44.578125 48.1875 50.953125 41.515625 
Q 57.328125 34.859375 57.328125 23.390625 
Q 57.328125 12.15625 50.6875 5.359375 
Q 44.046875 -1.421875 33.015625 -1.421875 
Q 20.359375 -1.421875 13.671875 8.265625 
Q 6.984375 17.96875 6.984375 36.375 
Q 6.984375 53.65625 15.1875 63.9375 
Q 23.390625 74.21875 37.203125 74.21875 
Q 40.921875 74.21875 44.703125 73.484375 
Q 48.484375 72.75 52.59375 71.296875 
z
" id="DejaVuSans-54"/>
       </defs>
       <use xlink:href="#DejaVuSans-54"/>
       <use x="63.623047" xlink:href="#DejaVuSans-48"/>
      </g>
     </g>
    </g>
    <g id="ytick_5">
     <g id="line2d_31">
      <g>
       <use style="stroke:#000000;stroke-width:0.8;" x="57.6" xlink:href="#me905ed63c9" y="73.402128"/>
      </g>
     </g>
     <g id="text_9">
      <!-- 80 -->
      <g transform="translate(37.875 77.201347)scale(0.1 -0.1)">
       <defs>
        <path d="M 31.78125 34.625 
Q 24.75 34.625 20.71875 30.859375 
Q 16.703125 27.09375 16.703125 20.515625 
Q 16.703125 13.921875 20.71875 10.15625 
Q 24.75 6.390625 31.78125 6.390625 
Q 38.8125 6.390625 42.859375 10.171875 
Q 46.921875 13.96875 46.921875 20.515625 
Q 46.921875 27.09375 42.890625 30.859375 
Q 38.875 34.625 31.78125 34.625 
z
M 21.921875 38.8125 
Q 15.578125 40.375 12.03125 44.71875 
Q 8.5 49.078125 8.5 55.328125 
Q 8.5 64.0625 14.71875 69.140625 
Q 20.953125 74.21875 31.78125 74.21875 
Q 42.671875 74.21875 48.875 69.140625 
Q 55.078125 64.0625 55.078125 55.328125 
Q 55.078125 49.078125 51.53125 44.71875 
Q 48 40.375 41.703125 38.8125 
Q 48.828125 37.15625 52.796875 32.3125 
Q 56.78125 27.484375 56.78125 20.515625 
Q 56.78125 9.90625 50.3125 4.234375 
Q 43.84375 -1.421875 31.78125 -1.421875 
Q 19.734375 -1.421875 13.25 4.234375 
Q 6.78125 9.90625 6.78125 20.515625 
Q 6.78125 27.484375 10.78125 32.3125 
Q 14.796875 37.15625 21.921875 38.8125 
z
M 18.3125 54.390625 
Q 18.3125 48.734375 21.84375 45.5625 
Q 25.390625 42.390625 31.78125 42.390625 
Q 38.140625 42.390625 41.71875 45.5625 
Q 45.3125 48.734375 45.3125 54.390625 
Q 45.3125 60.0625 41.71875 63.234375 
Q 38.140625 66.40625 31.78125 66.40625 
Q 25.390625 66.40625 21.84375 63.234375 
Q 18.3125 60.0625 18.3125 54.390625 
z
" id="DejaVuSans-56"/>
       </defs>
       <use xlink:href="#DejaVuSans-56"/>
       <use x="63.623047" xlink:href="#DejaVuSans-48"/>
      </g>
     </g>
    </g>
    <g id="text_10">
     <!-- Optimization Solve Time (sec) -->
     <g transform="translate(31.795312 249.503781)rotate(-90)scale(0.1 -0.1)">
      <defs>
       <path d="M 39.40625 66.21875 
Q 28.65625 66.21875 22.328125 58.203125 
Q 16.015625 50.203125 16.015625 36.375 
Q 16.015625 22.609375 22.328125 14.59375 
Q 28.65625 6.59375 39.40625 6.59375 
Q 50.140625 6.59375 56.421875 14.59375 
Q 62.703125 22.609375 62.703125 36.375 
Q 62.703125 50.203125 56.421875 58.203125 
Q 50.140625 66.21875 39.40625 66.21875 
z
M 39.40625 74.21875 
Q 54.734375 74.21875 63.90625 63.9375 
Q 73.09375 53.65625 73.09375 36.375 
Q 73.09375 19.140625 63.90625 8.859375 
Q 54.734375 -1.421875 39.40625 -1.421875 
Q 24.03125 -1.421875 14.8125 8.828125 
Q 5.609375 19.09375 5.609375 36.375 
Q 5.609375 53.65625 14.8125 63.9375 
Q 24.03125 74.21875 39.40625 74.21875 
z
" id="DejaVuSans-79"/>
       <path d="M 18.109375 8.203125 
L 18.109375 -20.796875 
L 9.078125 -20.796875 
L 9.078125 54.6875 
L 18.109375 54.6875 
L 18.109375 46.390625 
Q 20.953125 51.265625 25.265625 53.625 
Q 29.59375 56 35.59375 56 
Q 45.5625 56 51.78125 48.09375 
Q 58.015625 40.1875 58.015625 27.296875 
Q 58.015625 14.40625 51.78125 6.484375 
Q 45.5625 -1.421875 35.59375 -1.421875 
Q 29.59375 -1.421875 25.265625 0.953125 
Q 20.953125 3.328125 18.109375 8.203125 
z
M 48.6875 27.296875 
Q 48.6875 37.203125 44.609375 42.84375 
Q 40.53125 48.484375 33.40625 48.484375 
Q 26.265625 48.484375 22.1875 42.84375 
Q 18.109375 37.203125 18.109375 27.296875 
Q 18.109375 17.390625 22.1875 11.75 
Q 26.265625 6.109375 33.40625 6.109375 
Q 40.53125 6.109375 44.609375 11.75 
Q 48.6875 17.390625 48.6875 27.296875 
z
" id="DejaVuSans-112"/>
       <path d="M 18.3125 70.21875 
L 18.3125 54.6875 
L 36.8125 54.6875 
L 36.8125 47.703125 
L 18.3125 47.703125 
L 18.3125 18.015625 
Q 18.3125 11.328125 20.140625 9.421875 
Q 21.96875 7.515625 27.59375 7.515625 
L 36.8125 7.515625 
L 36.8125 0 
L 27.59375 0 
Q 17.1875 0 13.234375 3.875 
Q 9.28125 7.765625 9.28125 18.015625 
L 9.28125 47.703125 
L 2.6875 47.703125 
L 2.6875 54.6875 
L 9.28125 54.6875 
L 9.28125 70.21875 
z
" id="DejaVuSans-116"/>
       <path d="M 34.28125 27.484375 
Q 23.390625 27.484375 19.1875 25 
Q 14.984375 22.515625 14.984375 16.5 
Q 14.984375 11.71875 18.140625 8.90625 
Q 21.296875 6.109375 26.703125 6.109375 
Q 34.1875 6.109375 38.703125 11.40625 
Q 43.21875 16.703125 43.21875 25.484375 
L 43.21875 27.484375 
z
M 52.203125 31.203125 
L 52.203125 0 
L 43.21875 0 
L 43.21875 8.296875 
Q 40.140625 3.328125 35.546875 0.953125 
Q 30.953125 -1.421875 24.3125 -1.421875 
Q 15.921875 -1.421875 10.953125 3.296875 
Q 6 8.015625 6 15.921875 
Q 6 25.140625 12.171875 29.828125 
Q 18.359375 34.515625 30.609375 34.515625 
L 43.21875 34.515625 
L 43.21875 35.40625 
Q 43.21875 41.609375 39.140625 45 
Q 35.0625 48.390625 27.6875 48.390625 
Q 23 48.390625 18.546875 47.265625 
Q 14.109375 46.140625 10.015625 43.890625 
L 10.015625 52.203125 
Q 14.9375 54.109375 19.578125 55.046875 
Q 24.21875 56 28.609375 56 
Q 40.484375 56 46.34375 49.84375 
Q 52.203125 43.703125 52.203125 31.203125 
z
" id="DejaVuSans-97"/>
       <path d="M 54.890625 33.015625 
L 54.890625 0 
L 45.90625 0 
L 45.90625 32.71875 
Q 45.90625 40.484375 42.875 44.328125 
Q 39.84375 48.1875 33.796875 48.1875 
Q 26.515625 48.1875 22.3125 43.546875 
Q 18.109375 38.921875 18.109375 30.90625 
L 18.109375 0 
L 9.078125 0 
L 9.078125 54.6875 
L 18.109375 54.6875 
L 18.109375 46.1875 
Q 21.34375 51.125 25.703125 53.5625 
Q 30.078125 56 35.796875 56 
Q 45.21875 56 50.046875 50.171875 
Q 54.890625 44.34375 54.890625 33.015625 
z
" id="DejaVuSans-110"/>
       <path d="M 53.515625 70.515625 
L 53.515625 60.890625 
Q 47.90625 63.578125 42.921875 64.890625 
Q 37.9375 66.21875 33.296875 66.21875 
Q 25.25 66.21875 20.875 63.09375 
Q 16.5 59.96875 16.5 54.203125 
Q 16.5 49.359375 19.40625 46.890625 
Q 22.3125 44.4375 30.421875 42.921875 
L 36.375 41.703125 
Q 47.40625 39.59375 52.65625 34.296875 
Q 57.90625 29 57.90625 20.125 
Q 57.90625 9.515625 50.796875 4.046875 
Q 43.703125 -1.421875 29.984375 -1.421875 
Q 24.8125 -1.421875 18.96875 -0.25 
Q 13.140625 0.921875 6.890625 3.21875 
L 6.890625 13.375 
Q 12.890625 10.015625 18.65625 8.296875 
Q 24.421875 6.59375 29.984375 6.59375 
Q 38.421875 6.59375 43.015625 9.90625 
Q 47.609375 13.234375 47.609375 19.390625 
Q 47.609375 24.75 44.3125 27.78125 
Q 41.015625 30.8125 33.5 32.328125 
L 27.484375 33.5 
Q 16.453125 35.6875 11.515625 40.375 
Q 6.59375 45.0625 6.59375 53.421875 
Q 6.59375 63.09375 13.40625 68.65625 
Q 20.21875 74.21875 32.171875 74.21875 
Q 37.3125 74.21875 42.625 73.28125 
Q 47.953125 72.359375 53.515625 70.515625 
z
" id="DejaVuSans-83"/>
       <path d="M 2.984375 54.6875 
L 12.5 54.6875 
L 29.59375 8.796875 
L 46.6875 54.6875 
L 56.203125 54.6875 
L 35.6875 0 
L 23.484375 0 
z
" id="DejaVuSans-118"/>
       <path d="M -0.296875 72.90625 
L 61.375 72.90625 
L 61.375 64.59375 
L 35.5 64.59375 
L 35.5 0 
L 25.59375 0 
L 25.59375 64.59375 
L -0.296875 64.59375 
z
" id="DejaVuSans-84"/>
       <path d="M 48.78125 52.59375 
L 48.78125 44.1875 
Q 44.96875 46.296875 41.140625 47.34375 
Q 37.3125 48.390625 33.40625 48.390625 
Q 24.65625 48.390625 19.8125 42.84375 
Q 14.984375 37.3125 14.984375 27.296875 
Q 14.984375 17.28125 19.8125 11.734375 
Q 24.65625 6.203125 33.40625 6.203125 
Q 37.3125 6.203125 41.140625 7.25 
Q 44.96875 8.296875 48.78125 10.40625 
L 48.78125 2.09375 
Q 45.015625 0.34375 40.984375 -0.53125 
Q 36.96875 -1.421875 32.421875 -1.421875 
Q 20.0625 -1.421875 12.78125 6.34375 
Q 5.515625 14.109375 5.515625 27.296875 
Q 5.515625 40.671875 12.859375 48.328125 
Q 20.21875 56 33.015625 56 
Q 37.15625 56 41.109375 55.140625 
Q 45.0625 54.296875 48.78125 52.59375 
z
" id="DejaVuSans-99"/>
      </defs>
      <use xlink:href="#DejaVuSans-79"/>
      <use x="78.710938" xlink:href="#DejaVuSans-112"/>
      <use x="142.1875" xlink:href="#DejaVuSans-116"/>
      <use x="181.396484" xlink:href="#DejaVuSans-105"/>
      <use x="209.179688" xlink:href="#DejaVuSans-109"/>
      <use x="306.591797" xlink:href="#DejaVuSans-105"/>
      <use x="334.375" xlink:href="#DejaVuSans-122"/>
      <use x="386.865234" xlink:href="#DejaVuSans-97"/>
      <use x="448.144531" xlink:href="#DejaVuSans-116"/>
      <use x="487.353516" xlink:href="#DejaVuSans-105"/>
      <use x="515.136719" xlink:href="#DejaVuSans-111"/>
      <use x="576.318359" xlink:href="#DejaVuSans-110"/>
      <use x="639.697266" xlink:href="#DejaVuSans-32"/>
      <use x="671.484375" xlink:href="#DejaVuSans-83"/>
      <use x="734.960938" xlink:href="#DejaVuSans-111"/>
      <use x="796.142578" xlink:href="#DejaVuSans-108"/>
      <use x="823.925781" xlink:href="#DejaVuSans-118"/>
      <use x="883.105469" xlink:href="#DejaVuSans-101"/>
      <use x="944.628906" xlink:href="#DejaVuSans-32"/>
      <use x="976.416016" xlink:href="#DejaVuSans-84"/>
      <use x="1034.375" xlink:href="#DejaVuSans-105"/>
      <use x="1062.158203" xlink:href="#DejaVuSans-109"/>
      <use x="1159.570312" xlink:href="#DejaVuSans-101"/>
      <use x="1221.09375" xlink:href="#DejaVuSans-32"/>
      <use x="1252.880859" xlink:href="#DejaVuSans-40"/>
      <use x="1291.894531" xlink:href="#DejaVuSans-115"/>
      <use x="1343.994141" xlink:href="#DejaVuSans-101"/>
      <use x="1405.517578" xlink:href="#DejaVuSans-99"/>
      <use x="1460.498047" xlink:href="#DejaVuSans-41"/>
     </g>
    </g>
   </g>
   <g id="line2d_32">
    <path clip-path="url(#pa6f3de057e)" d="M 73.832727 295.480177 
L 87.767061 295.479296 
L 102.014733 295.475638 
L 115.708201 295.471071 
L 132.180728 295.459554 
L 146.115062 295.452378 
L 161.39404 295.431598 
L 176.417064 295.409168 
L 191.115592 295.407508 
L 205.807707 295.375714 
L 220.418619 295.352267 
L 235.02102 295.257709 
L 249.851264 295.184855 
L 264.596462 295.073304 
L 279.21293 294.82582 
L 293.87726 294.422157 
L 308.584126 293.635451 
L 323.284761 293.218874 
L 337.96678 291.64353 
L 352.64511 287.14656 
L 367.314219 282.452242 
L 382.002984 275.224103 
L 396.681062 235.145617 
L 398.487273 265.574951 
" style="fill:none;stroke:#1f77b4;stroke-linecap:square;stroke-width:1.5;"/>
    <defs>
     <path d="M -3 3 
L 3 -3 
M -3 -3 
L 3 3 
" id="m00489d208a" style="stroke:#1f77b4;"/>
    </defs>
    <g clip-path="url(#pa6f3de057e)">
     <use style="fill:#1f77b4;stroke:#1f77b4;" x="73.832727" xlink:href="#m00489d208a" y="295.480177"/>
     <use style="fill:#1f77b4;stroke:#1f77b4;" x="87.767061" xlink:href="#m00489d208a" y="295.479296"/>
     <use style="fill:#1f77b4;stroke:#1f77b4;" x="102.014733" xlink:href="#m00489d208a" y="295.475638"/>
     <use style="fill:#1f77b4;stroke:#1f77b4;" x="115.708201" xlink:href="#m00489d208a" y="295.471071"/>
     <use style="fill:#1f77b4;stroke:#1f77b4;" x="132.180728" xlink:href="#m00489d208a" y="295.459554"/>
     <use style="fill:#1f77b4;stroke:#1f77b4;" x="146.115062" xlink:href="#m00489d208a" y="295.452378"/>
     <use style="fill:#1f77b4;stroke:#1f77b4;" x="161.39404" xlink:href="#m00489d208a" y="295.431598"/>
     <use style="fill:#1f77b4;stroke:#1f77b4;" x="176.417064" xlink:href="#m00489d208a" y="295.409168"/>
     <use style="fill:#1f77b4;stroke:#1f77b4;" x="191.115592" xlink:href="#m00489d208a" y="295.407508"/>
     <use style="fill:#1f77b4;stroke:#1f77b4;" x="205.807707" xlink:href="#m00489d208a" y="295.375714"/>
     <use style="fill:#1f77b4;stroke:#1f77b4;" x="220.418619" xlink:href="#m00489d208a" y="295.352267"/>
     <use style="fill:#1f77b4;stroke:#1f77b4;" x="235.02102" xlink:href="#m00489d208a" y="295.257709"/>
     <use style="fill:#1f77b4;stroke:#1f77b4;" x="249.851264" xlink:href="#m00489d208a" y="295.184855"/>
     <use style="fill:#1f77b4;stroke:#1f77b4;" x="264.596462" xlink:href="#m00489d208a" y="295.073304"/>
     <use style="fill:#1f77b4;stroke:#1f77b4;" x="279.21293" xlink:href="#m00489d208a" y="294.82582"/>
     <use style="fill:#1f77b4;stroke:#1f77b4;" x="293.87726" xlink:href="#m00489d208a" y="294.422157"/>
     <use style="fill:#1f77b4;stroke:#1f77b4;" x="308.584126" xlink:href="#m00489d208a" y="293.635451"/>
     <use style="fill:#1f77b4;stroke:#1f77b4;" x="323.284761" xlink:href="#m00489d208a" y="293.218874"/>
     <use style="fill:#1f77b4;stroke:#1f77b4;" x="337.96678" xlink:href="#m00489d208a" y="291.64353"/>
     <use style="fill:#1f77b4;stroke:#1f77b4;" x="352.64511" xlink:href="#m00489d208a" y="287.14656"/>
     <use style="fill:#1f77b4;stroke:#1f77b4;" x="367.314219" xlink:href="#m00489d208a" y="282.452242"/>
     <use style="fill:#1f77b4;stroke:#1f77b4;" x="382.002984" xlink:href="#m00489d208a" y="275.224103"/>
     <use style="fill:#1f77b4;stroke:#1f77b4;" x="396.681062" xlink:href="#m00489d208a" y="235.145617"/>
     <use style="fill:#1f77b4;stroke:#1f77b4;" x="398.487273" xlink:href="#m00489d208a" y="265.574951"/>
    </g>
   </g>
   <g id="line2d_33">
    <path clip-path="url(#pa6f3de057e)" d="M 73.832727 295.468345 
L 87.767061 295.474092 
L 102.014733 295.465533 
L 115.708201 295.45522 
L 132.180728 295.435466 
L 146.115062 295.414095 
L 161.39404 295.338775 
L 176.417064 295.146815 
L 191.115592 295.190774 
L 205.807707 295.041377 
L 220.418619 295.008167 
L 235.02102 295.138426 
L 249.851264 295.102708 
L 264.596462 295.030717 
L 279.21293 294.957697 
L 293.87726 294.568912 
L 308.584126 293.846013 
L 323.284761 293.253294 
L 337.96678 290.778941 
L 352.64511 287.363383 
L 367.314219 282.455798 
L 382.002984 275.299753 
L 396.681062 236.914384 
L 398.487273 266.650472 
" style="fill:none;stroke:#ff7f0e;stroke-linecap:square;stroke-width:1.5;"/>
    <defs>
     <path d="M -3 3 
L 3 -3 
M -3 -3 
L 3 3 
" id="m8c11bcf084" style="stroke:#ff7f0e;"/>
    </defs>
    <g clip-path="url(#pa6f3de057e)">
     <use style="fill:#ff7f0e;stroke:#ff7f0e;" x="73.832727" xlink:href="#m8c11bcf084" y="295.468345"/>
     <use style="fill:#ff7f0e;stroke:#ff7f0e;" x="87.767061" xlink:href="#m8c11bcf084" y="295.474092"/>
     <use style="fill:#ff7f0e;stroke:#ff7f0e;" x="102.014733" xlink:href="#m8c11bcf084" y="295.465533"/>
     <use style="fill:#ff7f0e;stroke:#ff7f0e;" x="115.708201" xlink:href="#m8c11bcf084" y="295.45522"/>
     <use style="fill:#ff7f0e;stroke:#ff7f0e;" x="132.180728" xlink:href="#m8c11bcf084" y="295.435466"/>
     <use style="fill:#ff7f0e;stroke:#ff7f0e;" x="146.115062" xlink:href="#m8c11bcf084" y="295.414095"/>
     <use style="fill:#ff7f0e;stroke:#ff7f0e;" x="161.39404" xlink:href="#m8c11bcf084" y="295.338775"/>
     <use style="fill:#ff7f0e;stroke:#ff7f0e;" x="176.417064" xlink:href="#m8c11bcf084" y="295.146815"/>
     <use style="fill:#ff7f0e;stroke:#ff7f0e;" x="191.115592" xlink:href="#m8c11bcf084" y="295.190774"/>
     <use style="fill:#ff7f0e;stroke:#ff7f0e;" x="205.807707" xlink:href="#m8c11bcf084" y="295.041377"/>
     <use style="fill:#ff7f0e;stroke:#ff7f0e;" x="220.418619" xlink:href="#m8c11bcf084" y="295.008167"/>
     <use style="fill:#ff7f0e;stroke:#ff7f0e;" x="235.02102" xlink:href="#m8c11bcf084" y="295.138426"/>
     <use style="fill:#ff7f0e;stroke:#ff7f0e;" x="249.851264" xlink:href="#m8c11bcf084" y="295.102708"/>
     <use style="fill:#ff7f0e;stroke:#ff7f0e;" x="264.596462" xlink:href="#m8c11bcf084" y="295.030717"/>
     <use style="fill:#ff7f0e;stroke:#ff7f0e;" x="279.21293" xlink:href="#m8c11bcf084" y="294.957697"/>
     <use style="fill:#ff7f0e;stroke:#ff7f0e;" x="293.87726" xlink:href="#m8c11bcf084" y="294.568912"/>
     <use style="fill:#ff7f0e;stroke:#ff7f0e;" x="308.584126" xlink:href="#m8c11bcf084" y="293.846013"/>
     <use style="fill:#ff7f0e;stroke:#ff7f0e;" x="323.284761" xlink:href="#m8c11bcf084" y="293.253294"/>
     <use style="fill:#ff7f0e;stroke:#ff7f0e;" x="337.96678" xlink:href="#m8c11bcf084" y="290.778941"/>
     <use style="fill:#ff7f0e;stroke:#ff7f0e;" x="352.64511" xlink:href="#m8c11bcf084" y="287.363383"/>
     <use style="fill:#ff7f0e;stroke:#ff7f0e;" x="367.314219" xlink:href="#m8c11bcf084" y="282.455798"/>
     <use style="fill:#ff7f0e;stroke:#ff7f0e;" x="382.002984" xlink:href="#m8c11bcf084" y="275.299753"/>
     <use style="fill:#ff7f0e;stroke:#ff7f0e;" x="396.681062" xlink:href="#m8c11bcf084" y="236.914384"/>
     <use style="fill:#ff7f0e;stroke:#ff7f0e;" x="398.487273" xlink:href="#m8c11bcf084" y="266.650472"/>
    </g>
   </g>
   <g id="line2d_34">
    <path clip-path="url(#pa6f3de057e)" d="M 73.832727 295.47951 
L 87.767061 295.476262 
L 102.014733 295.47136 
L 115.708201 295.466152 
L 132.180728 295.455975 
L 146.115062 295.444926 
L 161.39404 295.428783 
L 176.417064 295.411081 
L 191.115592 295.384958 
L 205.807707 295.348003 
L 220.418619 295.300165 
L 235.02102 295.204688 
L 249.851264 295.092445 
L 264.596462 294.892391 
L 279.21293 294.491762 
L 293.87726 293.585265 
L 308.584126 292.323099 
L 323.284761 289.863767 
L 337.96678 290.821354 
L 352.64511 288.367074 
L 367.314219 279.05475 
L 382.002984 272.454114 
L 396.681062 257.662606 
L 398.487273 264.162749 
" style="fill:none;stroke:#2ca02c;stroke-linecap:square;stroke-width:1.5;"/>
    <defs>
     <path d="M -3 3 
L 3 -3 
M -3 -3 
L 3 3 
" id="m423aa34989" style="stroke:#2ca02c;"/>
    </defs>
    <g clip-path="url(#pa6f3de057e)">
     <use style="fill:#2ca02c;stroke:#2ca02c;" x="73.832727" xlink:href="#m423aa34989" y="295.47951"/>
     <use style="fill:#2ca02c;stroke:#2ca02c;" x="87.767061" xlink:href="#m423aa34989" y="295.476262"/>
     <use style="fill:#2ca02c;stroke:#2ca02c;" x="102.014733" xlink:href="#m423aa34989" y="295.47136"/>
     <use style="fill:#2ca02c;stroke:#2ca02c;" x="115.708201" xlink:href="#m423aa34989" y="295.466152"/>
     <use style="fill:#2ca02c;stroke:#2ca02c;" x="132.180728" xlink:href="#m423aa34989" y="295.455975"/>
     <use style="fill:#2ca02c;stroke:#2ca02c;" x="146.115062" xlink:href="#m423aa34989" y="295.444926"/>
     <use style="fill:#2ca02c;stroke:#2ca02c;" x="161.39404" xlink:href="#m423aa34989" y="295.428783"/>
     <use style="fill:#2ca02c;stroke:#2ca02c;" x="176.417064" xlink:href="#m423aa34989" y="295.411081"/>
     <use style="fill:#2ca02c;stroke:#2ca02c;" x="191.115592" xlink:href="#m423aa34989" y="295.384958"/>
     <use style="fill:#2ca02c;stroke:#2ca02c;" x="205.807707" xlink:href="#m423aa34989" y="295.348003"/>
     <use style="fill:#2ca02c;stroke:#2ca02c;" x="220.418619" xlink:href="#m423aa34989" y="295.300165"/>
     <use style="fill:#2ca02c;stroke:#2ca02c;" x="235.02102" xlink:href="#m423aa34989" y="295.204688"/>
     <use style="fill:#2ca02c;stroke:#2ca02c;" x="249.851264" xlink:href="#m423aa34989" y="295.092445"/>
     <use style="fill:#2ca02c;stroke:#2ca02c;" x="264.596462" xlink:href="#m423aa34989" y="294.892391"/>
     <use style="fill:#2ca02c;stroke:#2ca02c;" x="279.21293" xlink:href="#m423aa34989" y="294.491762"/>
     <use style="fill:#2ca02c;stroke:#2ca02c;" x="293.87726" xlink:href="#m423aa34989" y="293.585265"/>
     <use style="fill:#2ca02c;stroke:#2ca02c;" x="308.584126" xlink:href="#m423aa34989" y="292.323099"/>
     <use style="fill:#2ca02c;stroke:#2ca02c;" x="323.284761" xlink:href="#m423aa34989" y="289.863767"/>
     <use style="fill:#2ca02c;stroke:#2ca02c;" x="337.96678" xlink:href="#m423aa34989" y="290.821354"/>
     <use style="fill:#2ca02c;stroke:#2ca02c;" x="352.64511" xlink:href="#m423aa34989" y="288.367074"/>
     <use style="fill:#2ca02c;stroke:#2ca02c;" x="367.314219" xlink:href="#m423aa34989" y="279.05475"/>
     <use style="fill:#2ca02c;stroke:#2ca02c;" x="382.002984" xlink:href="#m423aa34989" y="272.454114"/>
     <use style="fill:#2ca02c;stroke:#2ca02c;" x="396.681062" xlink:href="#m423aa34989" y="257.662606"/>
     <use style="fill:#2ca02c;stroke:#2ca02c;" x="398.487273" xlink:href="#m423aa34989" y="264.162749"/>
    </g>
   </g>
   <g id="line2d_35">
    <path clip-path="url(#pa6f3de057e)" d="M 73.832727 295.47453 
L 87.767061 295.459834 
L 102.014733 295.430913 
L 115.708201 295.42337 
L 132.180728 295.410397 
L 146.115062 295.276357 
L 161.39404 295.384586 
L 176.417064 295.341723 
L 191.115592 295.312008 
L 205.807707 295.281358 
L 220.418619 295.209088 
L 235.02102 295.115631 
L 249.851264 294.995968 
L 264.596462 294.835678 
L 279.21293 294.479833 
L 293.87726 292.670968 
L 308.584126 293.353952 
L 323.284761 289.642953 
L 337.96678 289.957224 
L 352.64511 286.31348 
L 367.314219 278.994526 
L 382.002984 272.442374 
L 396.681062 259.001354 
L 398.487273 263.503479 
" style="fill:none;stroke:#d62728;stroke-linecap:square;stroke-width:1.5;"/>
    <defs>
     <path d="M -3 3 
L 3 -3 
M -3 -3 
L 3 3 
" id="md9f320027c" style="stroke:#d62728;"/>
    </defs>
    <g clip-path="url(#pa6f3de057e)">
     <use style="fill:#d62728;stroke:#d62728;" x="73.832727" xlink:href="#md9f320027c" y="295.47453"/>
     <use style="fill:#d62728;stroke:#d62728;" x="87.767061" xlink:href="#md9f320027c" y="295.459834"/>
     <use style="fill:#d62728;stroke:#d62728;" x="102.014733" xlink:href="#md9f320027c" y="295.430913"/>
     <use style="fill:#d62728;stroke:#d62728;" x="115.708201" xlink:href="#md9f320027c" y="295.42337"/>
     <use style="fill:#d62728;stroke:#d62728;" x="132.180728" xlink:href="#md9f320027c" y="295.410397"/>
     <use style="fill:#d62728;stroke:#d62728;" x="146.115062" xlink:href="#md9f320027c" y="295.276357"/>
     <use style="fill:#d62728;stroke:#d62728;" x="161.39404" xlink:href="#md9f320027c" y="295.384586"/>
     <use style="fill:#d62728;stroke:#d62728;" x="176.417064" xlink:href="#md9f320027c" y="295.341723"/>
     <use style="fill:#d62728;stroke:#d62728;" x="191.115592" xlink:href="#md9f320027c" y="295.312008"/>
     <use style="fill:#d62728;stroke:#d62728;" x="205.807707" xlink:href="#md9f320027c" y="295.281358"/>
     <use style="fill:#d62728;stroke:#d62728;" x="220.418619" xlink:href="#md9f320027c" y="295.209088"/>
     <use style="fill:#d62728;stroke:#d62728;" x="235.02102" xlink:href="#md9f320027c" y="295.115631"/>
     <use style="fill:#d62728;stroke:#d62728;" x="249.851264" xlink:href="#md9f320027c" y="294.995968"/>
     <use style="fill:#d62728;stroke:#d62728;" x="264.596462" xlink:href="#md9f320027c" y="294.835678"/>
     <use style="fill:#d62728;stroke:#d62728;" x="279.21293" xlink:href="#md9f320027c" y="294.479833"/>
     <use style="fill:#d62728;stroke:#d62728;" x="293.87726" xlink:href="#md9f320027c" y="292.670968"/>
     <use style="fill:#d62728;stroke:#d62728;" x="308.584126" xlink:href="#md9f320027c" y="293.353952"/>
     <use style="fill:#d62728;stroke:#d62728;" x="323.284761" xlink:href="#md9f320027c" y="289.642953"/>
     <use style="fill:#d62728;stroke:#d62728;" x="337.96678" xlink:href="#md9f320027c" y="289.957224"/>
     <use style="fill:#d62728;stroke:#d62728;" x="352.64511" xlink:href="#md9f320027c" y="286.31348"/>
     <use style="fill:#d62728;stroke:#d62728;" x="367.314219" xlink:href="#md9f320027c" y="278.994526"/>
     <use style="fill:#d62728;stroke:#d62728;" x="382.002984" xlink:href="#md9f320027c" y="272.442374"/>
     <use style="fill:#d62728;stroke:#d62728;" x="396.681062" xlink:href="#md9f320027c" y="259.001354"/>
     <use style="fill:#d62728;stroke:#d62728;" x="398.487273" xlink:href="#md9f320027c" y="263.503479"/>
    </g>
   </g>
   <g id="line2d_36">
    <path clip-path="url(#pa6f3de057e)" d="M 73.832727 295.484091 
L 87.767061 295.483331 
L 102.014733 295.481143 
L 115.708201 295.477828 
L 132.180728 295.47555 
L 146.115062 295.467019 
L 161.39404 295.451342 
L 176.417064 295.428873 
L 191.115592 295.389824 
L 205.807707 295.336199 
L 220.418619 295.23355 
L 235.02102 295.069812 
L 249.851264 294.782045 
L 264.596462 294.312139 
L 279.21293 293.470192 
L 293.87726 292.093384 
L 308.584126 289.63458 
L 323.284761 285.050081 
L 337.96678 276.499267 
L 352.64511 259.776608 
L 367.314219 221.276368 
L 382.002984 168.854816 
L 396.681062 76.20332 
L 398.487273 53.568 
" style="fill:none;stroke:#9467bd;stroke-linecap:square;stroke-width:1.5;"/>
    <defs>
     <path d="M -3 3 
L 3 -3 
M -3 -3 
L 3 3 
" id="me75422d6a8" style="stroke:#9467bd;"/>
    </defs>
    <g clip-path="url(#pa6f3de057e)">
     <use style="fill:#9467bd;stroke:#9467bd;" x="73.832727" xlink:href="#me75422d6a8" y="295.484091"/>
     <use style="fill:#9467bd;stroke:#9467bd;" x="87.767061" xlink:href="#me75422d6a8" y="295.483331"/>
     <use style="fill:#9467bd;stroke:#9467bd;" x="102.014733" xlink:href="#me75422d6a8" y="295.481143"/>
     <use style="fill:#9467bd;stroke:#9467bd;" x="115.708201" xlink:href="#me75422d6a8" y="295.477828"/>
     <use style="fill:#9467bd;stroke:#9467bd;" x="132.180728" xlink:href="#me75422d6a8" y="295.47555"/>
     <use style="fill:#9467bd;stroke:#9467bd;" x="146.115062" xlink:href="#me75422d6a8" y="295.467019"/>
     <use style="fill:#9467bd;stroke:#9467bd;" x="161.39404" xlink:href="#me75422d6a8" y="295.451342"/>
     <use style="fill:#9467bd;stroke:#9467bd;" x="176.417064" xlink:href="#me75422d6a8" y="295.428873"/>
     <use style="fill:#9467bd;stroke:#9467bd;" x="191.115592" xlink:href="#me75422d6a8" y="295.389824"/>
     <use style="fill:#9467bd;stroke:#9467bd;" x="205.807707" xlink:href="#me75422d6a8" y="295.336199"/>
     <use style="fill:#9467bd;stroke:#9467bd;" x="220.418619" xlink:href="#me75422d6a8" y="295.23355"/>
     <use style="fill:#9467bd;stroke:#9467bd;" x="235.02102" xlink:href="#me75422d6a8" y="295.069812"/>
     <use style="fill:#9467bd;stroke:#9467bd;" x="249.851264" xlink:href="#me75422d6a8" y="294.782045"/>
     <use style="fill:#9467bd;stroke:#9467bd;" x="264.596462" xlink:href="#me75422d6a8" y="294.312139"/>
     <use style="fill:#9467bd;stroke:#9467bd;" x="279.21293" xlink:href="#me75422d6a8" y="293.470192"/>
     <use style="fill:#9467bd;stroke:#9467bd;" x="293.87726" xlink:href="#me75422d6a8" y="292.093384"/>
     <use style="fill:#9467bd;stroke:#9467bd;" x="308.584126" xlink:href="#me75422d6a8" y="289.63458"/>
     <use style="fill:#9467bd;stroke:#9467bd;" x="323.284761" xlink:href="#me75422d6a8" y="285.050081"/>
     <use style="fill:#9467bd;stroke:#9467bd;" x="337.96678" xlink:href="#me75422d6a8" y="276.499267"/>
     <use style="fill:#9467bd;stroke:#9467bd;" x="352.64511" xlink:href="#me75422d6a8" y="259.776608"/>
     <use style="fill:#9467bd;stroke:#9467bd;" x="367.314219" xlink:href="#me75422d6a8" y="221.276368"/>
     <use style="fill:#9467bd;stroke:#9467bd;" x="382.002984" xlink:href="#me75422d6a8" y="168.854816"/>
     <use style="fill:#9467bd;stroke:#9467bd;" x="396.681062" xlink:href="#me75422d6a8" y="76.20332"/>
     <use style="fill:#9467bd;stroke:#9467bd;" x="398.487273" xlink:href="#me75422d6a8" y="53.568"/>
    </g>
   </g>
   <g id="line2d_37">
    <path clip-path="url(#pa6f3de057e)" d="M 73.832727 295.488 
L 87.767061 295.488 
L 102.014733 295.488 
L 115.708201 295.488 
L 132.180728 295.488 
L 146.115062 295.488 
L 161.39404 295.488 
L 176.417064 295.428162 
L 191.115592 295.488 
L 205.807707 295.488 
L 220.418619 295.488 
L 235.02102 295.119018 
L 249.851264 294.825312 
L 264.596462 294.341518 
L 279.21293 293.628975 
L 293.87726 291.957268 
L 308.584126 289.144378 
L 323.284761 283.682457 
L 337.96678 275.437971 
L 352.64511 255.546955 
L 367.314219 222.336789 
L 382.002984 168.90885 
L 396.681062 76.01153 
L 398.487273 53.624924 
" style="fill:none;stroke:#8c564b;stroke-linecap:square;stroke-width:1.5;"/>
    <defs>
     <path d="M -3 3 
L 3 -3 
M -3 -3 
L 3 3 
" id="m9857aba52e" style="stroke:#8c564b;"/>
    </defs>
    <g clip-path="url(#pa6f3de057e)">
     <use style="fill:#8c564b;stroke:#8c564b;" x="73.832727" xlink:href="#m9857aba52e" y="295.488"/>
     <use style="fill:#8c564b;stroke:#8c564b;" x="87.767061" xlink:href="#m9857aba52e" y="295.488"/>
     <use style="fill:#8c564b;stroke:#8c564b;" x="102.014733" xlink:href="#m9857aba52e" y="295.488"/>
     <use style="fill:#8c564b;stroke:#8c564b;" x="115.708201" xlink:href="#m9857aba52e" y="295.488"/>
     <use style="fill:#8c564b;stroke:#8c564b;" x="132.180728" xlink:href="#m9857aba52e" y="295.488"/>
     <use style="fill:#8c564b;stroke:#8c564b;" x="146.115062" xlink:href="#m9857aba52e" y="295.488"/>
     <use style="fill:#8c564b;stroke:#8c564b;" x="161.39404" xlink:href="#m9857aba52e" y="295.488"/>
     <use style="fill:#8c564b;stroke:#8c564b;" x="176.417064" xlink:href="#m9857aba52e" y="295.428162"/>
     <use style="fill:#8c564b;stroke:#8c564b;" x="191.115592" xlink:href="#m9857aba52e" y="295.488"/>
     <use style="fill:#8c564b;stroke:#8c564b;" x="205.807707" xlink:href="#m9857aba52e" y="295.488"/>
     <use style="fill:#8c564b;stroke:#8c564b;" x="220.418619" xlink:href="#m9857aba52e" y="295.488"/>
     <use style="fill:#8c564b;stroke:#8c564b;" x="235.02102" xlink:href="#m9857aba52e" y="295.119018"/>
     <use style="fill:#8c564b;stroke:#8c564b;" x="249.851264" xlink:href="#m9857aba52e" y="294.825312"/>
     <use style="fill:#8c564b;stroke:#8c564b;" x="264.596462" xlink:href="#m9857aba52e" y="294.341518"/>
     <use style="fill:#8c564b;stroke:#8c564b;" x="279.21293" xlink:href="#m9857aba52e" y="293.628975"/>
     <use style="fill:#8c564b;stroke:#8c564b;" x="293.87726" xlink:href="#m9857aba52e" y="291.957268"/>
     <use style="fill:#8c564b;stroke:#8c564b;" x="308.584126" xlink:href="#m9857aba52e" y="289.144378"/>
     <use style="fill:#8c564b;stroke:#8c564b;" x="323.284761" xlink:href="#m9857aba52e" y="283.682457"/>
     <use style="fill:#8c564b;stroke:#8c564b;" x="337.96678" xlink:href="#m9857aba52e" y="275.437971"/>
     <use style="fill:#8c564b;stroke:#8c564b;" x="352.64511" xlink:href="#m9857aba52e" y="255.546955"/>
     <use style="fill:#8c564b;stroke:#8c564b;" x="367.314219" xlink:href="#m9857aba52e" y="222.336789"/>
     <use style="fill:#8c564b;stroke:#8c564b;" x="382.002984" xlink:href="#m9857aba52e" y="168.90885"/>
     <use style="fill:#8c564b;stroke:#8c564b;" x="396.681062" xlink:href="#m9857aba52e" y="76.01153"/>
     <use style="fill:#8c564b;stroke:#8c564b;" x="398.487273" xlink:href="#m9857aba52e" y="53.624924"/>
    </g>
   </g>
   <g id="patch_3">
    <path d="M 57.6 307.584 
L 57.6 41.472 
" style="fill:none;stroke:#000000;stroke-linecap:square;stroke-linejoin:miter;stroke-width:0.8;"/>
   </g>
   <g id="patch_4">
    <path d="M 414.72 307.584 
L 414.72 41.472 
" style="fill:none;stroke:#000000;stroke-linecap:square;stroke-linejoin:miter;stroke-width:0.8;"/>
   </g>
   <g id="patch_5">
    <path d="M 57.6 307.584 
L 414.72 307.584 
" style="fill:none;stroke:#000000;stroke-linecap:square;stroke-linejoin:miter;stroke-width:0.8;"/>
   </g>
   <g id="patch_6">
    <path d="M 57.6 41.472 
L 414.72 41.472 
" style="fill:none;stroke:#000000;stroke-linecap:square;stroke-linejoin:miter;stroke-width:0.8;"/>
   </g>
   <g id="legend_1">
    <g id="patch_7">
     <path d="M 64.6 137.54075 
L 162.754687 137.54075 
Q 164.754687 137.54075 164.754687 135.54075 
L 164.754687 48.472 
Q 164.754687 46.472 162.754687 46.472 
L 64.6 46.472 
Q 62.6 46.472 62.6 48.472 
L 62.6 135.54075 
Q 62.6 137.54075 64.6 137.54075 
z
" style="fill:#ffffff;opacity:0.8;stroke:#cccccc;stroke-linejoin:miter;"/>
    </g>
    <g id="line2d_38">
     <path d="M 66.6 54.570438 
L 86.6 54.570438 
" style="fill:none;stroke:#1f77b4;stroke-linecap:square;stroke-width:1.5;"/>
    </g>
    <g id="line2d_39">
     <g>
      <use style="fill:#1f77b4;stroke:#1f77b4;" x="76.6" xlink:href="#m00489d208a" y="54.570438"/>
     </g>
    </g>
    <g id="text_11">
     <!-- LP-$\infty$-sliced -->
     <g transform="translate(94.6 58.070438)scale(0.1 -0.1)">
      <defs>
       <path d="M 9.8125 72.90625 
L 19.671875 72.90625 
L 19.671875 8.296875 
L 55.171875 8.296875 
L 55.171875 0 
L 9.8125 0 
z
" id="DejaVuSans-76"/>
       <path d="M 4.890625 31.390625 
L 31.203125 31.390625 
L 31.203125 23.390625 
L 4.890625 23.390625 
z
" id="DejaVuSans-45"/>
       <path d="M 45.5625 17.046875 
Q 44.046875 18.796875 41.65625 22.90625 
Q 38.375 17.046875 35.5 14.453125 
Q 31.890625 11.328125 26.265625 11.328125 
Q 19.671875 11.328125 15.328125 16.265625 
Q 10.75 21.4375 10.75 29.984375 
Q 10.75 38.1875 15.328125 43.75 
Q 19.4375 48.6875 26.375 48.6875 
Q 29.9375 48.6875 32.5625 47.21875 
Q 35.640625 45.609375 37.75 42.828125 
Q 39.703125 40.328125 41.65625 36.96875 
Q 44.921875 42.828125 47.796875 45.40625 
Q 51.421875 48.53125 57.03125 48.53125 
Q 63.625 48.53125 67.96875 43.609375 
Q 72.5625 38.421875 72.5625 29.890625 
Q 72.5625 21.6875 67.96875 16.109375 
Q 63.875 11.1875 56.9375 11.1875 
Q 53.375 11.1875 50.734375 12.640625 
Q 48.09375 13.96875 45.5625 17.046875 
z
M 25.734375 17.71875 
Q 33.796875 17.71875 38.625 29.4375 
Q 32.421875 42.234375 25.734375 42.234375 
Q 20.84375 42.234375 18.359375 38.71875 
Q 15.671875 34.96875 15.671875 29.984375 
Q 15.671875 24.515625 18.359375 21.140625 
Q 21.09375 17.71875 25.734375 17.71875 
z
M 57.5625 42.140625 
Q 50.296875 42.140625 44.671875 30.421875 
Q 50.828125 17.625 57.5625 17.625 
Q 62.453125 17.625 64.9375 21.140625 
Q 67.625 24.90625 67.625 29.890625 
Q 67.625 35.359375 64.9375 38.71875 
Q 62.203125 42.140625 57.5625 42.140625 
z
" id="DejaVuSans-8734"/>
       <path d="M 45.40625 46.390625 
L 45.40625 75.984375 
L 54.390625 75.984375 
L 54.390625 0 
L 45.40625 0 
L 45.40625 8.203125 
Q 42.578125 3.328125 38.25 0.953125 
Q 33.9375 -1.421875 27.875 -1.421875 
Q 17.96875 -1.421875 11.734375 6.484375 
Q 5.515625 14.40625 5.515625 27.296875 
Q 5.515625 40.1875 11.734375 48.09375 
Q 17.96875 56 27.875 56 
Q 33.9375 56 38.25 53.625 
Q 42.578125 51.265625 45.40625 46.390625 
z
M 14.796875 27.296875 
Q 14.796875 17.390625 18.875 11.75 
Q 22.953125 6.109375 30.078125 6.109375 
Q 37.203125 6.109375 41.296875 11.75 
Q 45.40625 17.390625 45.40625 27.296875 
Q 45.40625 37.203125 41.296875 42.84375 
Q 37.203125 48.484375 30.078125 48.484375 
Q 22.953125 48.484375 18.875 42.84375 
Q 14.796875 37.203125 14.796875 27.296875 
z
" id="DejaVuSans-100"/>
      </defs>
      <use transform="translate(0 0.015625)" xlink:href="#DejaVuSans-76"/>
      <use transform="translate(55.712891 0.015625)" xlink:href="#DejaVuSans-80"/>
      <use transform="translate(116.015625 0.015625)" xlink:href="#DejaVuSans-45"/>
      <use transform="translate(152.099609 0.015625)" xlink:href="#DejaVuSans-8734"/>
      <use transform="translate(235.400391 0.015625)" xlink:href="#DejaVuSans-45"/>
      <use transform="translate(271.484375 0.015625)" xlink:href="#DejaVuSans-115"/>
      <use transform="translate(323.583984 0.015625)" xlink:href="#DejaVuSans-108"/>
      <use transform="translate(351.367188 0.015625)" xlink:href="#DejaVuSans-105"/>
      <use transform="translate(379.150391 0.015625)" xlink:href="#DejaVuSans-99"/>
      <use transform="translate(434.130859 0.015625)" xlink:href="#DejaVuSans-101"/>
      <use transform="translate(495.654297 0.015625)" xlink:href="#DejaVuSans-100"/>
     </g>
    </g>
    <g id="line2d_40">
     <path d="M 66.6 69.248563 
L 86.6 69.248563 
" style="fill:none;stroke:#ff7f0e;stroke-linecap:square;stroke-width:1.5;"/>
    </g>
    <g id="line2d_41">
     <g>
      <use style="fill:#ff7f0e;stroke:#ff7f0e;" x="76.6" xlink:href="#m8c11bcf084" y="69.248563"/>
     </g>
    </g>
    <g id="text_12">
     <!-- LP-$\infty$-short -->
     <g transform="translate(94.6 72.748563)scale(0.1 -0.1)">
      <defs>
       <path d="M 54.890625 33.015625 
L 54.890625 0 
L 45.90625 0 
L 45.90625 32.71875 
Q 45.90625 40.484375 42.875 44.328125 
Q 39.84375 48.1875 33.796875 48.1875 
Q 26.515625 48.1875 22.3125 43.546875 
Q 18.109375 38.921875 18.109375 30.90625 
L 18.109375 0 
L 9.078125 0 
L 9.078125 75.984375 
L 18.109375 75.984375 
L 18.109375 46.1875 
Q 21.34375 51.125 25.703125 53.5625 
Q 30.078125 56 35.796875 56 
Q 45.21875 56 50.046875 50.171875 
Q 54.890625 44.34375 54.890625 33.015625 
z
" id="DejaVuSans-104"/>
      </defs>
      <use transform="translate(0 0.015625)" xlink:href="#DejaVuSans-76"/>
      <use transform="translate(55.712891 0.015625)" xlink:href="#DejaVuSans-80"/>
      <use transform="translate(116.015625 0.015625)" xlink:href="#DejaVuSans-45"/>
      <use transform="translate(152.099609 0.015625)" xlink:href="#DejaVuSans-8734"/>
      <use transform="translate(235.400391 0.015625)" xlink:href="#DejaVuSans-45"/>
      <use transform="translate(271.484375 0.015625)" xlink:href="#DejaVuSans-115"/>
      <use transform="translate(323.583984 0.015625)" xlink:href="#DejaVuSans-104"/>
      <use transform="translate(386.962891 0.015625)" xlink:href="#DejaVuSans-111"/>
      <use transform="translate(448.144531 0.015625)" xlink:href="#DejaVuSans-114"/>
      <use transform="translate(489.257812 0.015625)" xlink:href="#DejaVuSans-116"/>
     </g>
    </g>
    <g id="line2d_42">
     <path d="M 66.6 83.926688 
L 86.6 83.926688 
" style="fill:none;stroke:#2ca02c;stroke-linecap:square;stroke-width:1.5;"/>
    </g>
    <g id="line2d_43">
     <g>
      <use style="fill:#2ca02c;stroke:#2ca02c;" x="76.6" xlink:href="#m423aa34989" y="83.926688"/>
     </g>
    </g>
    <g id="text_13">
     <!-- LP-one-sliced -->
     <g transform="translate(94.6 87.426688)scale(0.1 -0.1)">
      <use xlink:href="#DejaVuSans-76"/>
      <use x="55.712891" xlink:href="#DejaVuSans-80"/>
      <use x="113.765625" xlink:href="#DejaVuSans-45"/>
      <use x="151.724609" xlink:href="#DejaVuSans-111"/>
      <use x="212.90625" xlink:href="#DejaVuSans-110"/>
      <use x="276.285156" xlink:href="#DejaVuSans-101"/>
      <use x="337.808594" xlink:href="#DejaVuSans-45"/>
      <use x="373.892578" xlink:href="#DejaVuSans-115"/>
      <use x="425.992188" xlink:href="#DejaVuSans-108"/>
      <use x="453.775391" xlink:href="#DejaVuSans-105"/>
      <use x="481.558594" xlink:href="#DejaVuSans-99"/>
      <use x="536.539062" xlink:href="#DejaVuSans-101"/>
      <use x="598.0625" xlink:href="#DejaVuSans-100"/>
     </g>
    </g>
    <g id="line2d_44">
     <path d="M 66.6 98.604813 
L 86.6 98.604813 
" style="fill:none;stroke:#d62728;stroke-linecap:square;stroke-width:1.5;"/>
    </g>
    <g id="line2d_45">
     <g>
      <use style="fill:#d62728;stroke:#d62728;" x="76.6" xlink:href="#md9f320027c" y="98.604813"/>
     </g>
    </g>
    <g id="text_14">
     <!-- LP-one-short -->
     <g transform="translate(94.6 102.104813)scale(0.1 -0.1)">
      <use xlink:href="#DejaVuSans-76"/>
      <use x="55.712891" xlink:href="#DejaVuSans-80"/>
      <use x="113.765625" xlink:href="#DejaVuSans-45"/>
      <use x="151.724609" xlink:href="#DejaVuSans-111"/>
      <use x="212.90625" xlink:href="#DejaVuSans-110"/>
      <use x="276.285156" xlink:href="#DejaVuSans-101"/>
      <use x="337.808594" xlink:href="#DejaVuSans-45"/>
      <use x="373.892578" xlink:href="#DejaVuSans-115"/>
      <use x="425.992188" xlink:href="#DejaVuSans-104"/>
      <use x="489.371094" xlink:href="#DejaVuSans-111"/>
      <use x="550.552734" xlink:href="#DejaVuSans-114"/>
      <use x="591.666016" xlink:href="#DejaVuSans-116"/>
     </g>
    </g>
    <g id="line2d_46">
     <path d="M 66.6 113.282938 
L 86.6 113.282938 
" style="fill:none;stroke:#9467bd;stroke-linecap:square;stroke-width:1.5;"/>
    </g>
    <g id="line2d_47">
     <g>
      <use style="fill:#9467bd;stroke:#9467bd;" x="76.6" xlink:href="#me75422d6a8" y="113.282938"/>
     </g>
    </g>
    <g id="text_15">
     <!-- QP-sliced -->
     <g transform="translate(94.6 116.782938)scale(0.1 -0.1)">
      <defs>
       <path d="M 39.40625 66.21875 
Q 28.65625 66.21875 22.328125 58.203125 
Q 16.015625 50.203125 16.015625 36.375 
Q 16.015625 22.609375 22.328125 14.59375 
Q 28.65625 6.59375 39.40625 6.59375 
Q 50.140625 6.59375 56.421875 14.59375 
Q 62.703125 22.609375 62.703125 36.375 
Q 62.703125 50.203125 56.421875 58.203125 
Q 50.140625 66.21875 39.40625 66.21875 
z
M 53.21875 1.3125 
L 66.21875 -12.890625 
L 54.296875 -12.890625 
L 43.5 -1.21875 
Q 41.890625 -1.3125 41.03125 -1.359375 
Q 40.1875 -1.421875 39.40625 -1.421875 
Q 24.03125 -1.421875 14.8125 8.859375 
Q 5.609375 19.140625 5.609375 36.375 
Q 5.609375 53.65625 14.8125 63.9375 
Q 24.03125 74.21875 39.40625 74.21875 
Q 54.734375 74.21875 63.90625 63.9375 
Q 73.09375 53.65625 73.09375 36.375 
Q 73.09375 23.6875 67.984375 14.640625 
Q 62.890625 5.609375 53.21875 1.3125 
z
" id="DejaVuSans-81"/>
      </defs>
      <use xlink:href="#DejaVuSans-81"/>
      <use x="78.710938" xlink:href="#DejaVuSans-80"/>
      <use x="136.763672" xlink:href="#DejaVuSans-45"/>
      <use x="172.847656" xlink:href="#DejaVuSans-115"/>
      <use x="224.947266" xlink:href="#DejaVuSans-108"/>
      <use x="252.730469" xlink:href="#DejaVuSans-105"/>
      <use x="280.513672" xlink:href="#DejaVuSans-99"/>
      <use x="335.494141" xlink:href="#DejaVuSans-101"/>
      <use x="397.017578" xlink:href="#DejaVuSans-100"/>
     </g>
    </g>
    <g id="line2d_48">
     <path d="M 66.6 127.961063 
L 86.6 127.961063 
" style="fill:none;stroke:#8c564b;stroke-linecap:square;stroke-width:1.5;"/>
    </g>
    <g id="line2d_49">
     <g>
      <use style="fill:#8c564b;stroke:#8c564b;" x="76.6" xlink:href="#m9857aba52e" y="127.961063"/>
     </g>
    </g>
    <g id="text_16">
     <!-- QP-short -->
     <g transform="translate(94.6 131.461063)scale(0.1 -0.1)">
      <use xlink:href="#DejaVuSans-81"/>
      <use x="78.710938" xlink:href="#DejaVuSans-80"/>
      <use x="136.763672" xlink:href="#DejaVuSans-45"/>
      <use x="172.847656" xlink:href="#DejaVuSans-115"/>
      <use x="224.947266" xlink:href="#DejaVuSans-104"/>
      <use x="288.326172" xlink:href="#DejaVuSans-111"/>
      <use x="349.507812" xlink:href="#DejaVuSans-114"/>
      <use x="390.621094" xlink:href="#DejaVuSans-116"/>
     </g>
    </g>
   </g>
  </g>
  <g id="text_17">
   <!-- Solve Time for Various Problem Sizes -->
   <g transform="translate(119.525625 16.030125)scale(0.12 -0.12)">
    <defs>
     <path d="M 37.109375 75.984375 
L 37.109375 68.5 
L 28.515625 68.5 
Q 23.6875 68.5 21.796875 66.546875 
Q 19.921875 64.59375 19.921875 59.515625 
L 19.921875 54.6875 
L 34.71875 54.6875 
L 34.71875 47.703125 
L 19.921875 47.703125 
L 19.921875 0 
L 10.890625 0 
L 10.890625 47.703125 
L 2.296875 47.703125 
L 2.296875 54.6875 
L 10.890625 54.6875 
L 10.890625 58.5 
Q 10.890625 67.625 15.140625 71.796875 
Q 19.390625 75.984375 28.609375 75.984375 
z
" id="DejaVuSans-102"/>
     <path d="M 28.609375 0 
L 0.78125 72.90625 
L 11.078125 72.90625 
L 34.1875 11.53125 
L 57.328125 72.90625 
L 67.578125 72.90625 
L 39.796875 0 
z
" id="DejaVuSans-86"/>
     <path d="M 8.5 21.578125 
L 8.5 54.6875 
L 17.484375 54.6875 
L 17.484375 21.921875 
Q 17.484375 14.15625 20.5 10.265625 
Q 23.53125 6.390625 29.59375 6.390625 
Q 36.859375 6.390625 41.078125 11.03125 
Q 45.3125 15.671875 45.3125 23.6875 
L 45.3125 54.6875 
L 54.296875 54.6875 
L 54.296875 0 
L 45.3125 0 
L 45.3125 8.40625 
Q 42.046875 3.421875 37.71875 1 
Q 33.40625 -1.421875 27.6875 -1.421875 
Q 18.265625 -1.421875 13.375 4.4375 
Q 8.5 10.296875 8.5 21.578125 
z
M 31.109375 56 
z
" id="DejaVuSans-117"/>
    </defs>
    <use xlink:href="#DejaVuSans-83"/>
    <use x="63.476562" xlink:href="#DejaVuSans-111"/>
    <use x="124.658203" xlink:href="#DejaVuSans-108"/>
    <use x="152.441406" xlink:href="#DejaVuSans-118"/>
    <use x="211.621094" xlink:href="#DejaVuSans-101"/>
    <use x="273.144531" xlink:href="#DejaVuSans-32"/>
    <use x="304.931641" xlink:href="#DejaVuSans-84"/>
    <use x="362.890625" xlink:href="#DejaVuSans-105"/>
    <use x="390.673828" xlink:href="#DejaVuSans-109"/>
    <use x="488.085938" xlink:href="#DejaVuSans-101"/>
    <use x="549.609375" xlink:href="#DejaVuSans-32"/>
    <use x="581.396484" xlink:href="#DejaVuSans-102"/>
    <use x="616.601562" xlink:href="#DejaVuSans-111"/>
    <use x="677.783203" xlink:href="#DejaVuSans-114"/>
    <use x="718.896484" xlink:href="#DejaVuSans-32"/>
    <use x="750.683594" xlink:href="#DejaVuSans-86"/>
    <use x="811.341797" xlink:href="#DejaVuSans-97"/>
    <use x="872.621094" xlink:href="#DejaVuSans-114"/>
    <use x="913.734375" xlink:href="#DejaVuSans-105"/>
    <use x="941.517578" xlink:href="#DejaVuSans-111"/>
    <use x="1002.699219" xlink:href="#DejaVuSans-117"/>
    <use x="1066.078125" xlink:href="#DejaVuSans-115"/>
    <use x="1118.177734" xlink:href="#DejaVuSans-32"/>
    <use x="1149.964844" xlink:href="#DejaVuSans-80"/>
    <use x="1208.517578" xlink:href="#DejaVuSans-114"/>
    <use x="1247.380859" xlink:href="#DejaVuSans-111"/>
    <use x="1308.5625" xlink:href="#DejaVuSans-98"/>
    <use x="1372.039062" xlink:href="#DejaVuSans-108"/>
    <use x="1399.822266" xlink:href="#DejaVuSans-101"/>
    <use x="1461.345703" xlink:href="#DejaVuSans-109"/>
    <use x="1558.757812" xlink:href="#DejaVuSans-32"/>
    <use x="1590.544922" xlink:href="#DejaVuSans-83"/>
    <use x="1654.021484" xlink:href="#DejaVuSans-105"/>
    <use x="1681.804688" xlink:href="#DejaVuSans-122"/>
    <use x="1734.294922" xlink:href="#DejaVuSans-101"/>
    <use x="1795.818359" xlink:href="#DejaVuSans-115"/>
   </g>
  </g>
 </g>
 <defs>
  <clipPath id="pa6f3de057e">
   <rect height="266.112" width="357.12" x="57.6" y="41.472"/>
  </clipPath>
 </defs>
</svg>
